<?xml version="1.0" encoding="UTF-8" standalone="no"?>
<!-- Svg Vector Icons : http://www.onlinewebfonts.com/icon -->

<svg
   xmlns:dc="http://purl.org/dc/elements/1.1/"
   xmlns:cc="http://creativecommons.org/ns#"
   xmlns:rdf="http://www.w3.org/1999/02/22-rdf-syntax-ns#"
   xmlns:svg="http://www.w3.org/2000/svg"
   xmlns="http://www.w3.org/2000/svg"
   xmlns:sodipodi="http://sodipodi.sourceforge.net/DTD/sodipodi-0.dtd"
   xmlns:inkscape="http://www.inkscape.org/namespaces/inkscape"
   version="1.1"
   x="0px"
   y="0px"
   viewBox="0 0 1000 1000"
   enable-background="new 0 0 1000 1000"
   xml:space="preserve"
   id="svg12"
   sodipodi:docname="Measurement_04.svg"
   inkscape:version="0.92.1 r15371"><defs
     id="defs16" /><sodipodi:namedview
     pagecolor="#ffffff"
     bordercolor="#666666"
     borderopacity="1"
     objecttolerance="10"
     gridtolerance="10"
     guidetolerance="10"
     inkscape:pageopacity="0"
     inkscape:pageshadow="2"
     inkscape:window-width="850"
     inkscape:window-height="596"
     id="namedview14"
     showgrid="false"
     inkscape:zoom="0.236"
     inkscape:cx="528.36436"
     inkscape:cy="832.33572"
     inkscape:window-x="527"
     inkscape:window-y="248"
     inkscape:window-maximized="0"
     inkscape:current-layer="svg12" /><metadata
     id="metadata2"> Svg Vector Icons : http://www.onlinewebfonts.com/icon <rdf:RDF><cc:Work
     rdf:about=""><dc:format>image/svg+xml</dc:format><dc:type
       rdf:resource="http://purl.org/dc/dcmitype/StillImage" /><dc:title></dc:title></cc:Work></rdf:RDF></metadata><path
     inkscape:connector-curvature="0"
     id="path4"
     d="M 487.8,390" /><path
     inkscape:connector-curvature="0"
     id="path6"
     d="m 555.7,571.6 72.3,-166 -17.6,-9.2 -97,157 c -4.4,-0.7 -8.9,-1.1 -13.4,-1.1 -49.9,0 -90.4,40.5 -90.4,90.4 0,49.9 40.5,90.4 90.4,90.4 49.9,0 90.4,-40.5 90.4,-90.4 0,-28.9 -13.6,-54.5 -34.7,-71.1 z"
     style="fill:#aad400" /><path
     inkscape:connector-curvature="0"
     id="path8"
     d="M 114.3,825.1 C 93.6,779.2 80.6,729 77.1,676.1 l 71.4,-9.5 c -0.1,-3.1 -0.2,-6.1 -0.2,-9.1 0,-12.9 0.7,-25.6 2.1,-38.1 H 77.2 C 81,562 95.9,507.7 119.9,458.8 l 71.4,30.2 c 7.1,-13 15.1,-25.5 23.7,-37.4 l -68,-40.1 c 29.5,-44.7 67.1,-83.4 110.7,-114.2 l 49.7,66 c 11.6,-7.6 23.6,-14.5 36,-20.7 L 302.1,269.9 C 346.9,246 396.5,230 449,223.6 l 10.8,84.6 c 13.2,-1.5 26.6,-2.4 40.2,-2.4 v -85.4 c 53.1,0 103.9,9.9 150.7,27.9 L 619,326.4 c 12.9,4.6 25.5,10.1 37.7,16.1 L 698,269.8 c 46.8,25 88.4,58.5 122.7,98.6 l -63.2,49.5 c 9.9,10.6 19.1,21.8 27.6,33.6 l 68,-40.1 c 29.9,45.4 51.5,96.9 62.5,152.3 l -74,9.8 c 3.7,14.9 6.4,30.3 8.1,45.9 h 73.2 c 0.6,9.5 1,19 1,28.6 0,63.2 -13.7,123.1 -38.1,177.1 12.5,14.5 24.2,29.6 35,45.4 43.9,-73.4 69.2,-159.3 69.2,-251.1 0,-270.6 -219.4,-490 -490,-490 -270.6,0 -490,219.4 -490,490 0,91.8 25.3,177.6 69.2,251.1 10.8,-15.8 22.6,-30.9 35.1,-45.4 z"
     style="fill:#d4aa00;fill-opacity:1" /><rect
     style="opacity:1;vector-effect:none;fill:#d4aa00;fill-opacity:1;stroke:#61b9d7;stroke-width:1;stroke-linecap:butt;stroke-linejoin:miter;stroke-miterlimit:4;stroke-dasharray:none;stroke-dashoffset:0;stroke-opacity:1"
     id="rect4496"
     width="838.98303"
     height="76.271187"
     x="79.199997"
     y="794.22882" /></svg>